<?xml version="1.0" encoding="UTF-8" standalone="no"?>
<svg
   sodipodi:docname="vsp-logo-2022.svg"
   inkscape:version="1.1.1 (c3084ef, 2021-09-22)"
   id="svg8"
   version="1.1"
   viewBox="0 0 64 64"
   height="64"
   width="64"
   inkscape:export-filename="C:\Users\billy\GDrive\tu-berlin\logo\vsp-logo-2022-600dpi.png"
   inkscape:export-xdpi="600.89856"
   inkscape:export-ydpi="600.89856"
   xmlns:inkscape="http://www.inkscape.org/namespaces/inkscape"
   xmlns:sodipodi="http://sodipodi.sourceforge.net/DTD/sodipodi-0.dtd"
   xmlns:xlink="http://www.w3.org/1999/xlink"
   xmlns="http://www.w3.org/2000/svg"
   xmlns:svg="http://www.w3.org/2000/svg"
   xmlns:rdf="http://www.w3.org/1999/02/22-rdf-syntax-ns#"
   xmlns:cc="http://creativecommons.org/ns#"
   xmlns:dc="http://purl.org/dc/elements/1.1/">
  <title
     id="title857">VSP Logo</title>
  <defs
     id="defs2" />
  <sodipodi:namedview
     inkscape:snap-text-baseline="true"
     inkscape:window-maximized="1"
     inkscape:window-y="25"
     inkscape:window-x="0"
     inkscape:window-height="1387"
     inkscape:window-width="2507"
     showgrid="false"
     inkscape:document-rotation="0"
     inkscape:current-layer="layer1"
     inkscape:document-units="mm"
     inkscape:cy="527.63393"
     inkscape:cx="389.55357"
     inkscape:zoom="11.2"
     inkscape:pageshadow="2"
     inkscape:pageopacity="0.0"
     borderopacity="1.0"
     bordercolor="#666666"
     pagecolor="#ffffff"
     id="base"
     inkscape:pagecheckerboard="0" />
  <metadata
     id="metadata5">
    <rdf:RDF>
      <cc:Work
         rdf:about="">
        <dc:format>image/svg+xml</dc:format>
        <dc:type
           rdf:resource="http://purl.org/dc/dcmitype/StillImage" />
        <dc:title>VSP Logo</dc:title>
        <dc:date>2020-11-11</dc:date>
        <dc:creator>
          <cc:Agent>
            <dc:title>Billy Charlton</dc:title>
          </cc:Agent>
        </dc:creator>
        <dc:rights>
          <cc:Agent>
            <dc:title>Fachgebiet Verkehrssystemplanung und Verkehrstelematik, TU Berlin</dc:title>
          </cc:Agent>
        </dc:rights>
        <dc:subject>
          <rdf:Bag>
            <rdf:li>logo</rdf:li>
            <rdf:li>tu</rdf:li>
            <rdf:li>vsp</rdf:li>
          </rdf:Bag>
        </dc:subject>
        <dc:description>Logo for VSP, Verkehrssystemplanung und Verkehrstelematik, Institute für Land- und Seeverkehr, TU Berlin</dc:description>
      </cc:Work>
    </rdf:RDF>
  </metadata>
  <g
     id="layer1"
     inkscape:groupmode="layer"
     inkscape:label="Layer 1">
    <path
       id="rect68-7"
       style="fill:#717171;fill-opacity:1;stroke-width:0.246129;stroke-miterlimit:4;stroke-dasharray:none"
       d="M 333.57227 494.0957 L 333.57227 554.21875 L 427.28711 554.21875 L 427.28711 542.32227 L 345.89258 542.32227 L 345.89258 494.0957 L 333.57227 494.0957 z "
       transform="scale(0.26458333)" />
    <path
       id="rect68"
       style="fill:#c50e1f;fill-opacity:1;stroke-width:0.224857;stroke-miterlimit:4;stroke-dasharray:none"
       d="M 344.42773 490.31445 L 344.42773 544.93164 L 430.52539 544.93164 L 430.52539 534.50781 L 355.5332 534.50781 L 355.5332 490.31445 L 344.42773 490.31445 z "
       transform="scale(0.26458333)" />
    <g
       style="font-style:italic;font-variant:normal;font-weight:600;font-stretch:normal;font-size:47.5605px;line-height:1.25;font-family:'Avenir Next';-inkscape-font-specification:'Avenir Next, Semi-Bold Italic';font-variant-ligatures:normal;font-variant-caps:normal;font-variant-numeric:normal;font-variant-east-asian:normal;fill:#c50e1f;fill-opacity:1;stroke:none;stroke-width:1.18901"
       id="text48"
       transform="matrix(0.25572424,-0.01839848,0.02126284,0.29553671,75.054143,87.474472)"
       aria-label="vsp">
      <path
         inkscape:connector-curvature="0"
         id="path1074"
         style="font-style:italic;font-variant:normal;font-weight:600;font-stretch:normal;font-size:47.5605px;font-family:'Avenir Next';-inkscape-font-specification:'Avenir Next, Semi-Bold Italic';font-variant-ligatures:normal;font-variant-caps:normal;font-variant-numeric:normal;font-variant-east-asian:normal;fill:#c50e1f;fill-opacity:1;stroke-width:1.18901"
         d="m 74.879728,182.66766 h -5.992624 l -4.470687,-22.82904 h 5.849942 l 2.663388,16.7413 h 0.09512 l 9.5121,-16.7413 h 5.897502 z" />
      <path
         inkscape:connector-curvature="0"
         id="path1076"
         style="font-style:italic;font-variant:normal;font-weight:600;font-stretch:normal;font-size:47.5605px;font-family:'Avenir Next';-inkscape-font-specification:'Avenir Next, Semi-Bold Italic';font-variant-ligatures:normal;font-variant-caps:normal;font-variant-numeric:normal;font-variant-east-asian:normal;fill:#c50e1f;fill-opacity:1;stroke-width:1.18901"
         d="m 90.096859,176.10431 q 0.713407,1.37926 2.092662,2.14023 1.426815,0.7134 3.138993,0.7134 1.94998,0 3.091432,-0.76096 1.189013,-0.76097 1.189013,-2.09267 0,-1.23657 -0.95121,-1.80729 -0.90365,-0.61829 -2.948751,-1.28414 -1.617057,-0.52316 -2.85363,-1.04633 -1.189013,-0.57073 -1.997541,-1.28413 -0.808529,-0.76097 -1.236573,-1.71218 -0.380484,-0.95121 -0.380484,-2.23534 0,-1.66462 0.760968,-3.04388 0.760968,-1.37925 2.092662,-2.37802 1.331694,-0.99877 3.138993,-1.52194 1.807299,-0.57072 3.947521,-0.57072 2.663386,0 4.803606,0.99877 2.18779,0.95121 3.42436,2.94875 l -4.328,2.56827 q -0.61829,-0.95121 -1.61706,-1.5695 -0.99877,-0.66585 -2.71095,-0.66585 -0.713408,0 -1.474376,0.14268 -0.713407,0.14268 -1.284133,0.47561 -0.570726,0.28536 -0.95121,0.80853 -0.332924,0.52316 -0.332924,1.28413 0,1.09389 0.90365,1.61706 0.95121,0.52316 2.758509,1.04633 3.186554,0.90365 4.946294,2.47314 1.75974,1.52194 1.75974,4.37557 0,1.90242 -0.80853,3.3768 -0.80853,1.42681 -2.18779,2.42558 -1.33169,0.99877 -3.138988,1.47438 -1.759739,0.52316 -3.75728,0.52316 -3.709719,0 -5.992623,-1.28413 -2.235343,-1.33169 -3.424356,-3.28168 z" />
      <path
         inkscape:connector-curvature="0"
         id="path1078"
         style="font-style:italic;font-variant:normal;font-weight:600;font-stretch:normal;font-size:47.5605px;font-family:'Avenir Next';-inkscape-font-specification:'Avenir Next, Semi-Bold Italic';font-variant-ligatures:normal;font-variant-caps:normal;font-variant-numeric:normal;font-variant-east-asian:normal;fill:#c50e1f;fill-opacity:1;stroke-width:1.18901"
         d="m 111.66558,194.08218 h -5.61214 l 6.04018,-34.24356 h 5.27922 l -0.57073,3.66216 h 0.14268 q 1.37926,-1.99754 3.51948,-3.09143 2.14022,-1.09389 4.70849,-1.09389 2.18778,0 3.94752,0.71341 1.8073,0.7134 3.04387,2.0451 1.28414,1.28413 1.94998,3.09143 0.71341,1.8073 0.71341,3.99508 0,2.94875 -0.95121,5.51702 -0.90365,2.56827 -2.56827,4.51825 -1.66461,1.90242 -3.99508,3.04387 -2.2829,1.09389 -5.04141,1.09389 -3.139,0 -5.08898,-1.14145 -1.90242,-1.14145 -2.90119,-3.13899 h -0.0951 z m 17.4547,-24.25585 q 0,-2.52071 -1.47438,-4.23289 -1.42681,-1.71217 -4.13776,-1.71217 -1.66462,0 -3.13899,0.7134 -1.47438,0.71341 -2.56827,1.94998 -1.04633,1.23658 -1.66462,2.90119 -0.61828,1.61706 -0.61828,3.42436 0,2.61583 1.56949,4.28045 1.5695,1.66461 4.23289,1.66461 1.75974,0 3.18655,-0.7134 1.47438,-0.71341 2.47315,-1.90242 1.04633,-1.23658 1.56949,-2.85363 0.57073,-1.66462 0.57073,-3.51948 z" />
    </g>
    <text
       id="text1331"
       y="82.655457"
       x="104.92905"
       style="font-style:normal;font-weight:normal;font-size:6.50082px;line-height:1.25;font-family:sans-serif;fill:#000000;fill-opacity:1;stroke:none;stroke-width:0.162521"
       xml:space="preserve"><tspan
         style="stroke-width:0.162521"
         y="82.655457"
         x="104.92905"
         id="tspan1329"
         sodipodi:role="line" /></text>
    <text
       id="text1339"
       y="82.655457"
       x="126.5211"
       style="font-style:normal;font-weight:normal;font-size:6.50082px;line-height:1.25;font-family:sans-serif;fill:#000000;fill-opacity:1;stroke:none;stroke-width:0.162521"
       xml:space="preserve"><tspan
         style="stroke-width:0.162521"
         y="82.655457"
         x="126.5211"
         id="tspan1337"
         sodipodi:role="line" /></text>
    <text
       id="text925"
       y="113.29561"
       x="115.4929"
       style="font-style:normal;font-weight:normal;font-size:6.50082px;line-height:1.25;font-family:sans-serif;fill:#000000;fill-opacity:1;stroke:none;stroke-width:0.162521"
       xml:space="preserve"><tspan
         style="stroke-width:0.162521"
         y="113.29561"
         x="115.4929"
         id="tspan923"
         sodipodi:role="line" /></text>
    <g
       id="g2066"
       transform="matrix(0.84704821,0,0,0.83690143,13.098804,23.54265)">
      <path
         sodipodi:type="star"
         style="fill:#ffffff;fill-opacity:1;stroke-width:3;stroke-linecap:round;stroke-linejoin:round;stroke-opacity:0.737903"
         id="path1052-3-1"
         inkscape:flatsided="true"
         sodipodi:sides="3"
         sodipodi:cx="304.64285"
         sodipodi:cy="495"
         sodipodi:r1="11.391192"
         sodipodi:r2="5.6955957"
         sodipodi:arg1="0.52359878"
         sodipodi:arg2="1.5707963"
         inkscape:rounded="0"
         inkscape:randomized="0"
         transform="matrix(0.04064688,0,0,-0.06587858,77.36294,176.03799)"
         inkscape:transform-center-y="-0.75348151"
         d="m 314.50791,500.6956 -19.73012,0 9.86506,-17.08679 z" />
      <path
         sodipodi:type="star"
         style="fill:#ffffff;fill-opacity:1;stroke-width:3;stroke-linecap:round;stroke-linejoin:round;stroke-opacity:0.737903"
         id="path1052-3-2-3"
         inkscape:flatsided="true"
         sodipodi:sides="3"
         sodipodi:cx="304.64285"
         sodipodi:cy="495"
         sodipodi:r1="11.391192"
         sodipodi:r2="5.6955957"
         sodipodi:arg1="0.52359878"
         sodipodi:arg2="1.5707963"
         inkscape:rounded="0"
         inkscape:randomized="0"
         transform="matrix(0.04064688,0,0,-0.06587858,77.36294,174.35133)"
         inkscape:transform-center-y="-0.75348151"
         d="m 314.50791,500.6956 -19.73012,0 9.86506,-17.08679 z" />
      <path
         sodipodi:type="star"
         style="fill:#ffffff;fill-opacity:1;stroke-width:3;stroke-linecap:round;stroke-linejoin:round;stroke-opacity:0.737903"
         id="path1052-9"
         inkscape:flatsided="true"
         sodipodi:sides="3"
         sodipodi:cx="304.64285"
         sodipodi:cy="495"
         sodipodi:r1="11.391192"
         sodipodi:r2="5.6955957"
         sodipodi:arg1="0.52359878"
         sodipodi:arg2="1.5707963"
         inkscape:rounded="0"
         inkscape:randomized="0"
         transform="matrix(0.04064688,0,0,-0.06587858,77.36294,172.65722)"
         inkscape:transform-center-y="-0.75348151"
         d="m 314.50791,500.6956 -19.73012,0 9.86506,-17.08679 z" />
    </g>
    <use
       x="0"
       y="0"
       xlink:href="#g2066"
       id="use2174"
       transform="rotate(-90,101.62921,133.27583)"
       width="100%"
       height="100%" />
    <use
       x="0"
       y="0"
       xlink:href="#g2066"
       id="use940"
       transform="rotate(90,98.099409,151.21199)"
       width="100%"
       height="100%" />
  </g>
</svg>
